<svg xmlns="http://www.w3.org/2000/svg" width="2480" height="3508" viewBox="0 0 2480 3508">
<defs><linearGradient id="bg" x1="0" y1="0" x2="0" y2="1"><stop offset="0" stop-color="#f8f1e2"/><stop offset="1" stop-color="#e8f2ed"/></linearGradient><style>.b{font-family:Arial,sans-serif;font-weight:800}.r{font-family:Arial,sans-serif}</style></defs>
<rect width="2480" height="3508" fill="url(#bg)"/><rect x="125" y="125" width="2230" height="3258" rx="110" fill="#fff9ee" opacity=".88" stroke="#102536" stroke-width="8"/>
<rect x="225" y="330" width="2030" height="535" rx="85" fill="#0b3a52"/><text x="350" y="500" class="b" fill="#f5e3bf" font-size="64">POSTER SEED 01</text><text x="2130" y="500" text-anchor="end" class="r" fill="#f5e3bf" font-size="44">FRANKSTON 2035 - ART THAT LIVES</text><circle cx="1890" cy="620" r="140" fill="#f0bd5d"/><path d="M330 650 C720 590 960 700 1290 650 S1780 590 2160 650 M330 720 C720 660 960 770 1290 720 S1780 660 2160 720" fill="none" stroke="#f5e3bf" stroke-width="10" opacity=".7"/>
<text x="280" y="1285" class="b" fill="#132536" font-size="205">MAKE THE</text><text x="270" y="1550" class="b" fill="#132536" font-size="260">WALL TEACH</text><line x1="280" y1="1635" x2="2200" y2="1635" stroke="#db6c54" stroke-width="24"/>
<rect x="280" y="1815" width="1920" height="520" rx="75" fill="#102536"/><rect x="385" y="1935" width="460" height="150" rx="32" fill="#f0bd5d"/><rect x="900" y="1935" width="380" height="150" rx="32" fill="#8fc6c3"/><rect x="1330" y="1935" width="580" height="150" rx="32" fill="#db6c54"/><rect x="1960" y="1935" width="170" height="150" rx="32" fill="#f5e3bf"/><path d="M420 2130 C740 1880 1050 2300 1350 2080 S1800 1900 2130 2110" fill="none" stroke="#fff9ee" stroke-width="10" opacity=".85"/>
<rect x="280" y="2465" width="1920" height="380" rx="75" fill="#f0bd5d"/><text x="380" y="2635" class="b" fill="#132536" font-size="92">A mural is a moment.</text><text x="380" y="2765" class="b" fill="#132536" font-size="80">A living mural is a relationship.</text>
<rect x="280" y="3020" width="1920" height="305" rx="70" fill="#fffefa" stroke="#102536" stroke-width="5"/><text x="380" y="3140" class="b" fill="#db6c54" font-size="48">MICRO-ACTION</text><text x="380" y="3235" class="b" fill="#132536" font-size="66">Choose one existing wall. Add one lesson.</text><text x="380" y="3315" class="b" fill="#132536" font-size="66">Test it for one school term.</text>
<line x1="280" y1="3378" x2="2200" y2="3378" stroke="#f0bd5d" stroke-width="10"/><text x="280" y="3442" class="b" fill="#132536" font-size="42">Frankston 2035 - Art That Lives</text><text x="2200" y="3442" text-anchor="end" class="r" fill="#132536" font-size="38">Blue Snake Studio seed</text></svg>
