<svg xmlns="http://www.w3.org/2000/svg" width="2480" height="3508" viewBox="0 0 2480 3508" role="img" aria-label="Poster Seed 04 Scan Less Notice More">
  <defs>
    <linearGradient id="night" x1="0" y1="0" x2="0" y2="1"><stop offset="0" stop-color="#050708"/><stop offset="1" stop-color="#112f3b"/></linearGradient>
    <filter id="noise"><feTurbulence type="fractalNoise" baseFrequency="0.58" numOctaves="4" stitchTiles="stitch"/><feColorMatrix type="saturate" values="0"/><feComponentTransfer><feFuncA type="table" tableValues="0 .15"/></feComponentTransfer></filter>
    <style>.serif{font-family:Georgia,'Times New Roman',serif}.bold{font-weight:800}.sans{font-family:Arial,sans-serif}.wide{letter-spacing:8px}</style>
  </defs>
  <rect width="2480" height="3508" fill="url(#night)"/><rect width="2480" height="3508" filter="url(#noise)" opacity=".58"/>
  <rect x="96" y="96" width="2288" height="3316" fill="none" stroke="#c99a4a" stroke-width="10" opacity=".78"/><rect x="142" y="142" width="2196" height="3224" fill="none" stroke="#8f6a2f" stroke-width="4" opacity=".62"/>
  <text x="260" y="300" class="serif bold wide" fill="#e6c779" font-size="56">POSTER SEED 04</text><text x="2220" y="300" text-anchor="end" class="sans wide" fill="#9fb0ac" font-size="38">FRANKSTON 2035 - ART THAT LIVES</text><line x1="260" y1="380" x2="2220" y2="380" stroke="#c99a4a" stroke-width="5" opacity=".6"/>
  <circle cx="1240" cy="455" r="84" fill="none" stroke="#c99a4a" stroke-width="5" opacity=".7"/><text x="1240" y="474" text-anchor="middle" class="serif bold" fill="#e6c779" font-size="52">B$S</text>
  <text x="1240" y="830" text-anchor="middle" class="serif bold" fill="#efe2c0" font-size="300">SCAN LESS</text><text x="1240" y="1135" text-anchor="middle" class="serif bold" fill="#e6c779" font-size="280">NOTICE MORE</text><line x1="380" y1="1275" x2="2100" y2="1275" stroke="#c99a4a" stroke-width="7" opacity=".7"/>
  <text x="1240" y="1370" text-anchor="middle" class="sans wide" fill="#9fb0ac" font-size="44">THE CODE IS A DOORWAY, NOT THE DESTINATION.</text>
  <rect x="260" y="1510" width="1960" height="455" rx="65" fill="#081316" opacity=".88" stroke="#c99a4a" stroke-width="5"/><text x="1240" y="1686" text-anchor="middle" class="serif" fill="#efe2c0" font-size="92">Use the code to notice the place,</text><text x="1240" y="1835" text-anchor="middle" class="serif bold" fill="#e6c779" font-size="112">then put the phone away.</text>
  <g transform="translate(410 2105)"><rect x="0" y="0" width="290" height="460" rx="45" fill="#071012" opacity=".86" stroke="#c99a4a" stroke-width="6"/><text x="145" y="75" text-anchor="middle" class="sans bold wide" fill="#9fb0ac" font-size="28">SCAN ONCE</text><rect x="70" y="120" width="28" height="28" fill="none" stroke="#e6c779" stroke-width="5"/><rect x="150" y="165" width="28" height="28" fill="none" stroke="#e6c779" stroke-width="5"/><rect x="104" y="230" width="28" height="28" fill="none" stroke="#e6c779" stroke-width="5"/><rect x="188" y="280" width="28" height="28" fill="none" stroke="#e6c779" stroke-width="5"/></g>
  <path d="M760 2295 C1000 2230 1120 2360 1310 2290 C1515 2215 1710 2310 1890 2228" fill="none" stroke="#e6c779" stroke-width="9" opacity=".66" stroke-dasharray="18 26"/>
  <g transform="translate(260 2475)"><rect width="610" height="405" rx="55" fill="#0a1214" opacity=".82" stroke="#c99a4a" stroke-width="5"/><text x="305" y="126" text-anchor="middle" class="serif bold" fill="#e6c779" font-size="90">LOOK</text><path d="M200 220 C255 145 355 145 410 220 C355 295 255 295 200 220Z" fill="none" stroke="#efe2c0" stroke-width="10" opacity=".8"/><circle cx="305" cy="220" r="32" fill="none" stroke="#efe2c0" stroke-width="10" opacity=".8"/><text x="305" y="345" text-anchor="middle" class="sans" fill="#9fb0ac" font-size="36">find one detail</text></g>
  <g transform="translate(935 2475)"><rect width="610" height="405" rx="55" fill="#0a1214" opacity=".82" stroke="#c99a4a" stroke-width="5"/><text x="305" y="126" text-anchor="middle" class="serif bold" fill="#e6c779" font-size="90">SKETCH</text><path d="M220 245 L390 180 L416 222 L250 295 Z" fill="none" stroke="#efe2c0" stroke-width="10" opacity=".8"/><text x="305" y="345" text-anchor="middle" class="sans" fill="#9fb0ac" font-size="36">draw one mark</text></g>
  <g transform="translate(1610 2475)"><rect width="610" height="405" rx="55" fill="#0a1214" opacity=".82" stroke="#c99a4a" stroke-width="5"/><text x="305" y="126" text-anchor="middle" class="serif bold" fill="#e6c779" font-size="90">TELL</text><path d="M190 182 h230 a45 45 0 0 1 45 45 v75 a45 45 0 0 1 -45 45 h-100 l-70 70 l20 -70 h-80 a45 45 0 0 1 -45 -45 v-75 a45 45 0 0 1 45 -45Z" fill="none" stroke="#efe2c0" stroke-width="10" opacity=".8"/><text x="305" y="345" text-anchor="middle" class="sans" fill="#9fb0ac" font-size="36">share what changed</text></g>
  <rect x="260" y="3050" width="1960" height="210" rx="70" fill="#111b1e" opacity=".9" stroke="#c99a4a" stroke-width="6"/><text x="360" y="3135" class="sans bold wide" fill="#d96d4b" font-size="40">MICRO-ACTION</text><text x="360" y="3218" class="serif bold" fill="#efe2c0" font-size="65">Run a 20-minute walk: look, sketch,</text><text x="360" y="3298" class="serif bold" fill="#e6c779" font-size="65">tell someone what changed.</text>
  <line x1="260" y1="3376" x2="2220" y2="3376" stroke="#c99a4a" stroke-width="5" opacity=".6"/><text x="260" y="3445" class="serif bold" fill="#e6c779" font-size="48">Frankston 2035 - Art That Lives</text><text x="2220" y="3445" text-anchor="end" class="sans" fill="#9fb0ac" font-size="38">Blue Snake Studio seed</text>
</svg>
