<svg xmlns="http://www.w3.org/2000/svg" width="2480" height="3508" viewBox="0 0 2480 3508" role="img" aria-label="Poster Seed 06 A City Can Be A Classroom">
  <defs><linearGradient id="bg" x1="0" y1="0" x2="0" y2="1"><stop offset="0" stop-color="#050708"/><stop offset="1" stop-color="#102f38"/></linearGradient><style>.serif{font-family:Georgia,'Times New Roman',serif}.sans{font-family:Arial,Helvetica,sans-serif}.bold{font-weight:800}.wide{letter-spacing:8px}</style></defs>
  <rect width="2480" height="3508" fill="url(#bg)"/>
  <rect x="92" y="92" width="2296" height="3324" fill="none" stroke="#c99a4a" stroke-width="10" opacity=".85"/><rect x="142" y="142" width="2196" height="3224" fill="none" stroke="#8f6a2f" stroke-width="4" opacity=".7"/>
  <text x="260" y="300" class="serif bold wide" fill="#e6c779" font-size="56">POSTER SEED 06</text><text x="2220" y="300" text-anchor="end" class="sans wide" fill="#9fb0ac" font-size="38">FRANKSTON 2035 - ART THAT LIVES</text><line x1="260" y1="380" x2="2220" y2="380" stroke="#c99a4a" stroke-width="5" opacity=".65"/>
  <circle cx="1240" cy="455" r="84" fill="none" stroke="#c99a4a" stroke-width="5"/><text x="1240" y="474" text-anchor="middle" class="serif bold" fill="#e6c779" font-size="52">B$S</text>
  <g opacity=".18" stroke="#efe2c0" stroke-width="3"><path d="M260 650h1960M260 760h1960M260 870h1960M260 980h1960M260 1090h1960M260 1200h1960M260 1310h1960M260 1420h1960"/><path d="M410 610v850M620 610v850M830 610v850M1040 610v850M1250 610v850M1460 610v850M1670 610v850M1880 610v850M2090 610v850"/></g>
  <g transform="translate(332 650)" opacity=".9" fill="none" stroke="#e5c274" stroke-width="10"><path d="M45 520v-210h115v210M205 520v-310h170v310M420 520v-245h130v245M610 520v-365h195v365M870 520v-250h150v250M1080 520v-330h200v330M1350 520v-215h130v215M1540 520v-285h180v285"/><path d="M0 520h1816" stroke="#c99a4a"/></g>
  <text x="1240" y="1280" text-anchor="middle" class="serif bold" fill="#efe2c0" font-size="235">A CITY CAN BE</text><text x="1240" y="1542" text-anchor="middle" class="serif bold" fill="#e6c779" font-size="275">A CLASSROOM</text><line x1="380" y1="1668" x2="2100" y2="1668" stroke="#c99a4a" stroke-width="7"/>
  <text x="1240" y="1762" text-anchor="middle" class="sans wide" fill="#9fb0ac" font-size="44">THE STREET IS A LESSON IF SOMEONE OPENS THE DOOR.</text>
  <rect x="260" y="1910" width="1960" height="500" rx="70" fill="#081316" stroke="#c99a4a" stroke-width="5"/><text x="1240" y="2088" text-anchor="middle" class="serif" fill="#efe2c0" font-size="90">Every footpath can hold a question.</text><text x="1240" y="2238" text-anchor="middle" class="serif bold" fill="#e6c779" font-size="104">Every wall can start a lesson.</text>
  <g fill="none" stroke="#c99a4a" stroke-width="5"><rect x="260" y="2460" width="610" height="385" rx="55"/><rect x="935" y="2460" width="610" height="385" rx="55"/><rect x="1610" y="2460" width="610" height="385" rx="55"/></g>
  <g class="serif bold" fill="#e6c779" font-size="78" text-anchor="middle"><text x="565" y="2570">WALL</text><text x="1240" y="2570">QUESTION</text><text x="1915" y="2570">SHEET</text></g>
  <rect x="260" y="2928" width="1960" height="305" rx="70" fill="#111b1e" stroke="#c99a4a" stroke-width="6"/><text x="360" y="3018" class="sans bold wide" fill="#d96d4b" font-size="42">MICRO-ACTION</text><text x="360" y="3110" class="serif bold" fill="#efe2c0" font-size="66">Pair one public artwork with one worksheet</text><text x="360" y="3190" class="serif bold" fill="#e6c779" font-size="66">and one low-prep teacher note.</text>
  <line x1="260" y1="3285" x2="2220" y2="3285" stroke="#c99a4a" stroke-width="5"/><text x="260" y="3350" class="serif bold" fill="#e6c779" font-size="48">Frankston 2035 - Art That Lives</text><text x="2220" y="3350" text-anchor="end" class="sans" fill="#9fb0ac" font-size="38">Blue Snake Studio seed</text>
</svg>
