<svg xmlns="http://www.w3.org/2000/svg" width="2480" height="3508" viewBox="0 0 2480 3508" role="img" aria-label="Poster Seed 09 Useful Is Beautiful">
  <defs><linearGradient id="bg" x1="0" y1="0" x2="0" y2="1"><stop offset="0" stop-color="#050708"/><stop offset="1" stop-color="#2f2312"/></linearGradient><style>.serif{font-family:Georgia,'Times New Roman',serif}.sans{font-family:Arial,Helvetica,sans-serif}.bold{font-weight:800}.wide{letter-spacing:8px}</style></defs>
  <rect width="2480" height="3508" fill="url(#bg)"/>
  <rect x="92" y="92" width="2296" height="3324" fill="none" stroke="#c99a4a" stroke-width="10" opacity=".85"/><rect x="142" y="142" width="2196" height="3224" fill="none" stroke="#8f6a2f" stroke-width="4" opacity=".7"/>
  <text x="260" y="300" class="serif bold wide" fill="#e6c779" font-size="56">POSTER SEED 09</text><text x="2220" y="300" text-anchor="end" class="sans wide" fill="#9fb0ac" font-size="38">FRANKSTON 2035 - ART THAT LIVES</text><line x1="260" y1="380" x2="2220" y2="380" stroke="#c99a4a" stroke-width="5"/>
  <circle cx="1240" cy="455" r="84" fill="none" stroke="#c99a4a" stroke-width="5"/><text x="1240" y="474" text-anchor="middle" class="serif bold" fill="#e6c779" font-size="52">B$S</text>
  <g transform="translate(260 620)"><rect width="1960" height="610" rx="90" fill="#081316" stroke="#c99a4a" stroke-width="5"/><circle cx="980" cy="305" r="178" fill="none" stroke="#e5c274" stroke-width="8"/><circle cx="980" cy="305" r="86" fill="none" stroke="#efe2c0" stroke-width="7"/><path d="M980 127v356M802 305h356M854 179l252 252M1106 179L854 431" stroke="#c99a4a" stroke-width="7"/><text x="980" y="555" text-anchor="middle" class="sans wide" fill="#9fb0ac" font-size="36">BEAUTY THAT DOES SOMETHING</text></g>
  <text x="1240" y="1540" text-anchor="middle" class="serif bold" fill="#efe2c0" font-size="330">USEFUL IS</text><text x="1240" y="1848" text-anchor="middle" class="serif bold" fill="#e6c779" font-size="310">BEAUTIFUL</text><line x1="380" y1="1978" x2="2100" y2="1978" stroke="#c99a4a" stroke-width="7"/>
  <text x="1240" y="2072" text-anchor="middle" class="sans wide" fill="#9fb0ac" font-size="42">ART MUST BE MORE THAN LOOKED AT.</text>
  <rect x="260" y="2200" width="1960" height="360" rx="70" fill="#081316" stroke="#c99a4a" stroke-width="5"/><text x="1240" y="2370" text-anchor="middle" class="serif" fill="#efe2c0" font-size="96">Art must do a job</text><text x="1240" y="2498" text-anchor="middle" class="serif bold" fill="#e6c779" font-size="102">for the people who live with it.</text>
  <g fill="none" stroke="#c99a4a" stroke-width="5"><rect x="260" y="2605" width="455" height="300" rx="55"/><rect x="765" y="2605" width="455" height="300" rx="55"/><rect x="1270" y="2605" width="455" height="300" rx="55"/><rect x="1775" y="2605" width="455" height="300" rx="55"/></g><g class="serif bold" fill="#e6c779" font-size="64" text-anchor="middle"><text x="488" y="2697">TEACHER</text><text x="992" y="2697">CHILD</text><text x="1498" y="2697">ARTIST</text><text x="2002" y="2697">RESIDENT</text></g>
  <rect x="260" y="3005" width="1960" height="255" rx="65" fill="#111b1e" stroke="#c99a4a" stroke-width="6"/><text x="360" y="3088" class="sans bold wide" fill="#d96d4b" font-size="40">MICRO-ACTION</text><text x="360" y="3172" class="serif bold" fill="#efe2c0" font-size="56">Before making it bigger, ask: what can a teacher,</text><text x="360" y="3238" class="serif bold" fill="#e6c779" font-size="56">child, artist, or resident do with it?</text>
  <line x1="260" y1="3300" x2="2220" y2="3300" stroke="#c99a4a" stroke-width="5"/><text x="260" y="3348" class="serif bold" fill="#e6c779" font-size="38">Frankston 2035 - Art That Lives</text><text x="2220" y="3348" text-anchor="end" class="sans" fill="#9fb0ac" font-size="34">Blue Snake Studio seed</text>
</svg>
