<svg xmlns="http://www.w3.org/2000/svg" width="2480" height="3508" viewBox="0 0 2480 3508" role="img" aria-label="Poster Seed 10 The Ecosystem Is The Artwork">
  <defs><linearGradient id="bg" x1="0" y1="0" x2="0" y2="1"><stop offset="0" stop-color="#050708"/><stop offset="1" stop-color="#162f26"/></linearGradient><style>.serif{font-family:Georgia,'Times New Roman',serif}.sans{font-family:Arial,Helvetica,sans-serif}.bold{font-weight:800}.wide{letter-spacing:8px}</style></defs>
  <rect width="2480" height="3508" fill="url(#bg)"/>
  <rect x="92" y="92" width="2296" height="3324" fill="none" stroke="#c99a4a" stroke-width="10" opacity=".85"/><rect x="142" y="142" width="2196" height="3224" fill="none" stroke="#8f6a2f" stroke-width="4" opacity=".7"/>
  <text x="260" y="300" class="serif bold wide" fill="#e6c779" font-size="56">POSTER SEED 10</text><text x="2220" y="300" text-anchor="end" class="sans wide" fill="#9fb0ac" font-size="38">FRANKSTON 2035 - ART THAT LIVES</text><line x1="260" y1="380" x2="2220" y2="380" stroke="#c99a4a" stroke-width="5"/>
  <circle cx="1240" cy="455" r="84" fill="none" stroke="#c99a4a" stroke-width="5"/><text x="1240" y="474" text-anchor="middle" class="serif bold" fill="#e6c779" font-size="52">B$S</text>
  <g transform="translate(240 610)"><rect width="2000" height="780" rx="95" fill="#071316" stroke="#c99a4a" stroke-width="5"/><circle cx="1000" cy="390" r="250" fill="none" stroke="#e5c274" stroke-width="8" opacity=".5"/><circle cx="1000" cy="390" r="122" fill="none" stroke="#efe2c0" stroke-width="7" opacity=".5"/><text x="1000" y="365" text-anchor="middle" class="serif bold" fill="#e6c779" font-size="74">LIVING</text><text x="1000" y="455" text-anchor="middle" class="serif bold" fill="#efe2c0" font-size="74">SYSTEM</text><path d="M1000 135C1250 115 1465 235 1560 440C1455 650 1225 705 1000 645C760 710 545 645 440 440C535 235 750 115 1000 135Z" fill="none" stroke="#c99a4a" stroke-width="9" opacity=".68"/><g class="sans bold" fill="#efe2c0" font-size="32" text-anchor="middle"><text x="1000" y="121">WALL</text><text x="1508" y="286">WALK</text><text x="1508" y="566">SCHOOL</text><text x="1000" y="691">LIBRARY</text><text x="492" y="566">SONG</text><text x="492" y="286">POSTER</text></g></g>
  <text x="1240" y="1640" text-anchor="middle" class="serif bold" fill="#efe2c0" font-size="240">THE ECOSYSTEM</text><text x="1240" y="1892" text-anchor="middle" class="serif bold" fill="#e6c779" font-size="252">IS THE ARTWORK</text><line x1="380" y1="2015" x2="2100" y2="2015" stroke="#c99a4a" stroke-width="7"/>
  <text x="1240" y="2105" text-anchor="middle" class="sans wide" fill="#9fb0ac" font-size="42">PUBLIC ART THAT KEEPS MOVING AFTER THE PAINT DRIES.</text>
  <rect x="260" y="2235" width="1960" height="360" rx="70" fill="#081316" stroke="#c99a4a" stroke-width="5"/><text x="1240" y="2380" text-anchor="middle" class="serif" fill="#efe2c0" font-size="78">Wall, walk, school, library, song, poster, maker.</text><text x="1240" y="2515" text-anchor="middle" class="serif bold" fill="#e6c779" font-size="108">One living system.</text>
  <g fill="none" stroke="#c99a4a" stroke-width="5"><rect x="260" y="2730" width="610" height="310" rx="55"/><rect x="935" y="2730" width="610" height="310" rx="55"/><rect x="1610" y="2730" width="610" height="310" rx="55"/></g><g class="serif bold" fill="#e6c779" font-size="72" text-anchor="middle"><text x="565" y="2826">ASSET</text><text x="1240" y="2826">STEP</text><text x="1915" y="2826">BEGIN</text></g>
  <rect x="260" y="3130" width="1960" height="190" rx="65" fill="#111b1e" stroke="#c99a4a" stroke-width="6"/><text x="360" y="3208" class="sans bold wide" fill="#d96d4b" font-size="40">MICRO-ACTION</text><text x="360" y="3292" class="serif bold" fill="#efe2c0" font-size="62">Connect one existing asset to one practical next step.</text><text x="360" y="3362" class="serif bold" fill="#e6c779" font-size="62">That is enough to begin.</text>
  <line x1="260" y1="3406" x2="2220" y2="3406" stroke="#c99a4a" stroke-width="5"/><text x="260" y="3465" class="serif bold" fill="#e6c779" font-size="42">Frankston 2035 - Art That Lives</text><text x="2220" y="3465" text-anchor="end" class="sans" fill="#9fb0ac" font-size="34">Blue Snake Studio seed</text>
</svg>
