<svg xmlns="http://www.w3.org/2000/svg" width="2480" height="3508" viewBox="0 0 2480 3508" role="img" aria-label="Poster Seed 08 Exchange Means Reply">
  <defs><linearGradient id="bg" x1="0" y1="0" x2="0" y2="1"><stop offset="0" stop-color="#050708"/><stop offset="1" stop-color="#112f3b"/></linearGradient><style>.serif{font-family:Georgia,'Times New Roman',serif}.sans{font-family:Arial,Helvetica,sans-serif}.bold{font-weight:800}.wide{letter-spacing:8px}</style></defs>
  <rect width="2480" height="3508" fill="url(#bg)"/>
  <rect x="92" y="92" width="2296" height="3324" fill="none" stroke="#c99a4a" stroke-width="10" opacity=".85"/><rect x="142" y="142" width="2196" height="3224" fill="none" stroke="#8f6a2f" stroke-width="4" opacity=".7"/>
  <text x="260" y="300" class="serif bold wide" fill="#e6c779" font-size="56">POSTER SEED 08</text><text x="2220" y="300" text-anchor="end" class="sans wide" fill="#9fb0ac" font-size="38">FRANKSTON 2035 - ART THAT LIVES</text><line x1="260" y1="380" x2="2220" y2="380" stroke="#c99a4a" stroke-width="5"/>
  <circle cx="1240" cy="455" r="84" fill="none" stroke="#c99a4a" stroke-width="5"/><text x="1240" y="474" text-anchor="middle" class="serif bold" fill="#e6c779" font-size="52">B$S</text>
  <g transform="translate(250 615)" fill="none"><path d="M0 600C260 500 455 575 700 500C960 420 1180 530 1450 455C1645 400 1785 425 1980 370" stroke="#9fb0ac" stroke-width="9" opacity=".45"/><path d="M60 650h560M95 650v-170h90v170M220 650v-260h115v260M375 650v-210h105v210" stroke="#e5c274" stroke-width="10" opacity=".72"/><text x="350" y="735" text-anchor="middle" class="sans bold wide" fill="#efe2c0" font-size="38">FRANKSTON</text><path d="M1340 650h580M1380 650L1605 260L1840 650Z" stroke="#e5c274" stroke-width="11" opacity=".78"/><text x="1635" y="735" text-anchor="middle" class="sans bold wide" fill="#efe2c0" font-size="38">SUSONO</text><path d="M760 475C935 350 1080 350 1255 475" stroke="#e5c274" stroke-width="11"/><path d="M1222 415l65 74l-96 9" stroke="#e5c274" stroke-width="10" stroke-linecap="round" stroke-linejoin="round"/></g>
  <text x="1240" y="1502" text-anchor="middle" class="serif bold" fill="#efe2c0" font-size="250">EXCHANGE</text><text x="1240" y="1780" text-anchor="middle" class="serif bold" fill="#e6c779" font-size="310">MEANS REPLY</text><line x1="380" y1="1908" x2="2100" y2="1908" stroke="#c99a4a" stroke-width="7"/>
  <text x="1240" y="2002" text-anchor="middle" class="sans wide" fill="#9fb0ac" font-size="42">A BRIDGE IS REAL WHEN SOMETHING COMES BACK.</text>
  <rect x="260" y="2135" width="1960" height="420" rx="70" fill="#081316" stroke="#c99a4a" stroke-width="5"/><text x="1240" y="2285" text-anchor="middle" class="serif" fill="#efe2c0" font-size="88">A sister-city project is not decoration.</text><text x="1240" y="2428" text-anchor="middle" class="serif bold" fill="#e6c779" font-size="104">It is a message that receives an answer.</text>
  <g fill="none" stroke="#c99a4a" stroke-width="5"><rect x="260" y="2665" width="455" height="350" rx="55"/><rect x="765" y="2665" width="455" height="350" rx="55"/><rect x="1270" y="2665" width="455" height="350" rx="55"/><rect x="1775" y="2665" width="455" height="350" rx="55"/></g><g class="serif bold" fill="#e6c779" font-size="70" text-anchor="middle"><text x="488" y="2760">SONG</text><text x="992" y="2760">POSTER</text><text x="1498" y="2760">CLASS</text><text x="2002" y="2760">REVIEW</text></g>
  <rect x="260" y="3120" width="1960" height="195" rx="65" fill="#111b1e" stroke="#c99a4a" stroke-width="6"/><text x="360" y="3198" class="sans bold wide" fill="#d96d4b" font-size="40">MICRO-ACTION</text><text x="360" y="3288" class="serif bold" fill="#efe2c0" font-size="64">Start with one song, one poster, one classroom response,</text><text x="360" y="3362" class="serif bold" fill="#e6c779" font-size="64">and proper review.</text>
  <line x1="260" y1="3408" x2="2220" y2="3408" stroke="#c99a4a" stroke-width="5"/><text x="260" y="3470" class="serif bold" fill="#e6c779" font-size="44">Frankston 2035 - Art That Lives</text><text x="2220" y="3470" text-anchor="end" class="sans" fill="#9fb0ac" font-size="36">Blue Snake Studio seed</text>
</svg>
